<?xml version="1.0" encoding="utf-8"?>
<!-- Generator: Adobe Illustrator 19.0.1, SVG Export Plug-In . SVG Version: 6.00 Build 0)  -->
<svg version="1.1" id="Слой_1" xmlns="http://www.w3.org/2000/svg" xmlns:xlink="http://www.w3.org/1999/xlink" x="0px" y="0px"
	 viewBox="1492.2 244.3 579 303.4" style="enable-background:new 1492.2 244.3 579 303.4;" xml:space="preserve">
<style type="text/css">
	.st0{fill:#B45631;}
</style>
<path d="M1588.1,377.6c-0.1-2.6-0.2-4.8-0.3-6.1c4.1-0.2,8.2-0.4,12.3-0.5c0.1,1.4,0.2,2.9,0.3,4.3c0.1,2.5,0.2,4.9,0.2,7.2h0.4
	c2.5-5.2,6.3-9.4,11.4-12.6c5.1-3.2,10.7-4.8,17-4.8c2.2,0,3.7,0.1,4.4,0.2c1.6,0.2,2.9,0.5,3.9,0.7c-1,4-2,8-3,12
	c-0.6-0.1-1.4-0.3-2.3-0.5c-2.4-0.4-4.4-0.4-5.3-0.4c-3.4,0-6.7,0.6-9.8,1.9c-3.2,1.3-5.9,3.2-8.2,6c-2.3,2.7-4.2,6.2-5.7,10.4
	c-1.4,4.2-2.2,9.3-2.2,15.2c0,13.7,0,27.4,0,41.2c-4.3,0-8.6,0-12.9,0c0-21.6,0-43.3,0-64.9C1588.3,384.4,1588.3,381.3,1588.1,377.6
	z M1601.2,451.8c0,3.5-2.9,6.4-6.4,6.4c-3.6,0-6.4-2.9-6.4-6.4s2.9-6.4,6.4-6.4C1598.3,445.4,1601.2,448.3,1601.2,451.8z
	 M1600.2,371.3c0,3.4-2.8,6.2-6.2,6.2c-3.4,0-6.2-2.8-6.2-6.2c0-3.4,2.8-6.2,6.2-6.2C1597.4,365.1,1600.2,367.9,1600.2,371.3z"/>
<path d="M1781,504c-4.3,0-8.6,0-12.9,0c0-44.2,0-88.3,0-132.5c4.3,0,8.6,0,12.9,0c0,3.7,0,7.5,0,11.2h0.6c0.3-0.4,0.6-1,1.1-1.7
	c2.3-3.3,4.7-5.5,5.8-6.4c0.7-0.6,3.5-3,7.8-5.1c6.1-3,12.3-4.5,18.6-4.5c6.9,0,13.2,1.2,18.8,3.6c5.6,2.4,10.4,5.7,14.4,9.8
	c4,4.2,7.1,9.1,9.3,14.8c2.2,5.7,3.3,11.8,3.3,18.4s-1.1,12.7-3.3,18.4c-2.2,5.7-5.3,10.6-9.3,14.8c-4,4.2-8.8,7.5-14.4,9.8
	c-5.6,2.4-11.9,3.6-18.8,3.6c-6.3,0-12.5-1.5-18.6-4.5c-6.1-3-11-7.2-14.7-12.8h-0.6C1781,462,1781,483,1781,504z M1847.1,411.7
	c0-4.9-0.8-9.6-2.3-13.9s-3.7-8.1-6.5-11.4c-2.8-3.2-6.3-5.8-10.5-7.7c-4.2-1.9-8.9-2.8-14.2-2.8c-4.9,0-9.5,0.9-13.6,2.7
	c-4.2,1.8-7.8,4.3-10.8,7.6c-3,3.2-5.4,7-7.1,11.4c-1.7,4.3-2.6,9.1-2.6,14.1c0,5,0.9,9.8,2.6,14.1c1.7,4.3,4.1,8.1,7.1,11.3
	c3,3.2,6.6,5.7,10.8,7.5c4.2,1.8,8.7,2.8,13.6,2.8c5.3,0,10-0.9,14.2-2.8c4.2-1.8,7.7-4.3,10.5-7.6c2.8-3.2,5-7,6.5-11.4
	C1846.3,421.3,1847.1,416.6,1847.1,411.7z M1781,371.6c0,3.5-2.9,6.4-6.4,6.4c-3.6,0-6.4-2.9-6.4-6.4s2.9-6.4,6.4-6.4
	C1778.1,365.1,1781,368,1781,371.6z M1740.1,370.8c0,3.1-2.5,5.6-5.6,5.6c-3.1,0-5.6-2.5-5.6-5.6s2.5-5.6,5.6-5.6
	C1737.6,365.1,1740.1,367.6,1740.1,370.8z M1740.1,452.6c0,3.1-2.5,5.6-5.6,5.6c-3.1,0-5.6-2.5-5.6-5.6s2.5-5.6,5.6-5.6
	C1737.6,447,1740.1,449.5,1740.1,452.6z M2071.2,370.7c0,3.1-2.5,5.6-5.6,5.6c-3.1,0-5.6-2.5-5.6-5.6s2.5-5.6,5.6-5.6
	C2068.7,365.1,2071.2,367.6,2071.2,370.7z M2071.2,452.6c0,3.1-2.5,5.6-5.6,5.6c-3.1,0-5.6-2.5-5.6-5.6s2.5-5.6,5.6-5.6
	C2068.7,447,2071.2,449.5,2071.2,452.6z M1781,504c0,3.5-2.9,6.3-6.4,6.3c-3.6,0-6.4-2.8-6.4-6.3s2.9-6.3,6.4-6.3
	C1778.1,497.7,1781,500.5,1781,504z"/>
<path d="M2060,370.7c0,4.3,0,8.6,0,12.9c-4.4-6.2-9.6-10.8-15.5-13.9c-5.9-3.1-12.5-4.6-19.8-4.6c-12.6,0-23.4,4.5-32.3,13.6
	c-9,9.1-13.4,20-13.4,32.7c0,13,4.4,24.1,13.3,33.2c8.9,9.1,19.6,13.6,32.1,13.6c7.1,0,13.6-1.5,19.5-4.4c6-2.9,11.3-7.3,16.1-13.1
	c0,4,0,7.9,0,11.9c3.7,0,7.5,0,11.2,0c0-27.3,0-54.6,0-81.9C2067.5,370.7,2063.7,370.7,2060,370.7z M2056.5,430.4
	c-3,5.4-7.3,9.7-12.9,12.8c-5.6,3.2-11.5,4.7-17.8,4.7c-6.2,0-12-1.6-17.4-4.8c-5.4-3.2-9.7-7.6-12.9-13.3c-3.2-5.7-4.8-11.7-4.8-18
	c0-6.3,1.6-12.3,4.8-18c3.2-5.7,7.5-10,12.8-13.2c5.4-3.1,11.3-4.7,17.6-4.7c9.9,0,18.2,3.5,25,10.4c6.8,6.9,10.2,15.5,10.2,25.8
	C2061,418.9,2059.5,425,2056.5,430.4z"/>
<circle class="st0" cx="1814.5" cy="290.6" r="46.3"/>
<circle class="st0" cx="1709.6" cy="517.1" r="30.6"/>
<path d="M1780.4,500.2"/>
<path d="M1901.6,407.3c13.9-13.5,27.9-26.9,41.9-40.3c2.9,2.9,5.9,5.9,8.9,8.8c-11.8,10.7-23.6,21.4-35.4,32.1
	c13.4,13.1,26.8,26.1,40.1,39.2c-3.1,3.2-6.1,6.3-9.1,9.5c-15.4-15.7-30.9-31.4-46.3-47.1c0,14.2,0,28.3,0,42.4c-4.3,0-8.6,0-12.9,0
	c0-44.2,0-88.3,0-132.5c4.3,0,8.6,0,12.9,0C1901.6,348.7,1901.6,378,1901.6,407.3z M1901.6,319.3c0,3.5-2.9,6.4-6.4,6.4
	s-6.4-2.9-6.4-6.4s2.9-6.4,6.4-6.4S1901.6,315.8,1901.6,319.3z M1901.6,451.8c0,3.5-2.9,6.4-6.4,6.4c-3.6,0-6.4-2.9-6.4-6.4
	c0-3.5,2.9-6.4,6.4-6.4C1898.7,445.4,1901.6,448.3,1901.6,451.8z M1954.1,371.4c0,3.5-2.8,6.3-6.3,6.3s-6.3-2.8-6.3-6.3
	s2.8-6.3,6.3-6.3S1954.1,368,1954.1,371.4z M1958.9,451.7c0,3.6-2.9,6.6-6.6,6.6c-3.6,0-6.6-3-6.6-6.6s2.9-6.6,6.6-6.6
	C1956,445.1,1958.9,448,1958.9,451.7z"/>
<path d="M1505,407.3c14-13.5,27.9-26.9,41.8-40.3c2.9,2.9,5.9,5.9,8.9,8.8c-11.8,10.7-23.6,21.4-35.4,32.1
	c13.4,13.1,26.8,26.1,40.1,39.2c-3,3.2-6.1,6.3-9.2,9.5c-15.4-15.7-30.9-31.4-46.3-47.1c0,14.2,0,28.3,0,42.4c-4.3,0-8.6,0-12.9,0
	c0-44.2,0-88.3,0-132.5c4.3,0,8.6,0,12.9,0C1505,348.7,1505,378,1505,407.3z M1505,319.3c0,3.5-2.9,6.4-6.4,6.4
	c-3.5,0-6.4-2.9-6.4-6.4s2.9-6.4,6.4-6.4C1502.2,312.9,1505,315.8,1505,319.3z M1505,451.8c0,3.5-2.9,6.4-6.4,6.4
	c-3.6,0-6.4-2.9-6.4-6.4c0-3.5,2.9-6.4,6.4-6.4C1502.2,445.4,1505,448.3,1505,451.8z M1557.6,371.4c0,3.5-2.8,6.3-6.3,6.3
	s-6.3-2.8-6.3-6.3s2.8-6.3,6.3-6.3S1557.6,368,1557.6,371.4z M1562.4,451.7c0,3.6-2.9,6.6-6.6,6.6s-6.6-3-6.6-6.6s2.9-6.6,6.6-6.6
	S1562.4,448,1562.4,451.7z"/>
<path d="M1728.9,370.8c0,4.4,0,8.7,0,13.1c-4.5-6.2-9.7-10.9-15.6-14c-5.9-3.1-12.5-4.6-19.8-4.6c-12.6,0-23.4,4.5-32.4,13.6
	s-13.5,20-13.5,32.8c0,13.1,4.4,24.2,13.3,33.3c8.9,9.1,19.7,13.7,32.2,13.7c7.1,0,13.6-1.5,19.6-4.4c6-2.9,11.3-7.3,16.1-13.2
	c0,3.8,0,7.7,0,11.5c3.8,0,7.5,0,11.3,0c0-27.3,0-54.6,0-81.8C1736.4,370.8,1732.6,370.8,1728.9,370.8z M1725.1,430.6
	c-3,5.4-7.3,9.7-12.9,12.8c-5.6,3.2-11.5,4.7-17.8,4.7c-6.2,0-12-1.6-17.4-4.8c-5.4-3.2-9.7-7.6-12.9-13.3c-3.2-5.7-4.8-11.7-4.8-18
	c0-6.3,1.6-12.3,4.8-18c3.2-5.7,7.5-10,12.8-13.2c5.4-3.1,11.3-4.7,17.6-4.7c9.9,0,18.2,3.5,25,10.4c6.8,6.9,10.2,15.5,10.2,25.8
	C1729.6,419.2,1728.1,425.2,1725.1,430.6z"/>
<circle cx="1636.1" cy="372" r="6.2"/>
<g>
	<path d="M1826.1,476.3v28c0,2.1,0.1,4.4,0.2,6h-3.8l-0.2-4h-0.1c-1.3,2.6-4.1,4.5-7.9,4.5c-5.6,0-9.9-4.7-9.9-11.8
		c-0.1-7.7,4.7-12.5,10.4-12.5c3.5,0,5.9,1.7,7,3.5h0.1v-13.8L1826.1,476.3L1826.1,476.3z M1821.9,496.5c0-0.5-0.1-1.3-0.2-1.8
		c-0.6-2.7-2.9-4.9-6.1-4.9c-4.4,0-6.9,3.8-6.9,9c0,4.7,2.3,8.6,6.8,8.6c2.8,0,5.4-1.9,6.2-5c0.1-0.6,0.2-1.2,0.2-1.8L1821.9,496.5
		L1821.9,496.5z"/>
	<path d="M1835.5,499.4c0.1,5.7,3.7,8,7.9,8c3,0,4.8-0.5,6.4-1.2l0.7,3c-1.5,0.7-4,1.4-7.7,1.4c-7.1,0-11.4-4.7-11.4-11.7
		s4.1-12.5,10.9-12.5c7.6,0,9.6,6.7,9.6,10.9c0,0.9-0.1,1.5-0.1,2H1835.5z M1847.8,496.4c0.1-2.7-1.1-6.8-5.8-6.8
		c-4.3,0-6.1,3.9-6.5,6.8H1847.8z"/>
	<path d="M1856.6,506c1.3,0.8,3.4,1.7,5.6,1.7c3.1,0,4.5-1.5,4.5-3.5c0-2-1.2-3.1-4.3-4.3c-4.2-1.5-6.1-3.8-6.1-6.6
		c0-3.7,3-6.8,8-6.8c2.3,0,4.4,0.7,5.7,1.4l-1.1,3.1c-0.9-0.6-2.6-1.3-4.7-1.3c-2.5,0-3.9,1.4-3.9,3.2c0,1.9,1.4,2.8,4.4,3.9
		c4,1.5,6.1,3.5,6.1,7c0,4.1-3.2,7-8.7,7c-2.5,0-4.9-0.6-6.5-1.6L1856.6,506z"/>
	<path d="M1880.8,480.6c0.1,1.4-1,2.6-2.7,2.6c-1.5,0-2.5-1.2-2.5-2.6c0-1.5,1.1-2.6,2.6-2.6
		C1879.8,477.9,1880.8,479.1,1880.8,480.6z M1876.1,510.3v-23.2h4.2v23.2H1876.1z"/>
	<path d="M1907.3,487.1c-0.1,1.7-0.2,3.5-0.2,6.4v13.5c0,5.3-1.1,8.6-3.3,10.6c-2.3,2.1-5.5,2.8-8.4,2.8c-2.8,0-5.8-0.7-7.7-1.9
		l1.1-3.2c1.5,1,3.9,1.8,6.8,1.8c4.3,0,7.5-2.3,7.5-8.1v-2.6h-0.1c-1.3,2.2-3.8,3.9-7.4,3.9c-5.8,0-9.9-4.9-9.9-11.3
		c0-7.9,5.1-12.3,10.4-12.3c4,0,6.2,2.1,7.2,4h0.1l0.2-3.5L1907.3,487.1L1907.3,487.1z M1902.9,496.2c0-0.7-0.1-1.3-0.2-1.9
		c-0.8-2.4-2.8-4.5-5.9-4.5c-4,0-6.9,3.4-6.9,8.8c0,4.5,2.3,8.3,6.9,8.3c2.6,0,4.9-1.6,5.8-4.3c0.2-0.7,0.3-1.5,0.3-2.3V496.2
		L1902.9,496.2z"/>
	<path d="M1913.8,493.4c0-2.4-0.1-4.4-0.2-6.3h3.7l0.2,3.8h0.1c1.2-2.2,3.8-4.4,7.7-4.4c3.2,0,8.2,1.9,8.2,9.9v13.8h-4.2v-13.4
		c0-3.7-1.4-6.8-5.4-6.8c-2.8,0-4.9,2-5.6,4.3c-0.2,0.5-0.3,1.3-0.3,2v13.9h-4.2V493.4z"/>
	<path d="M1950,506c1.3,0.8,3.4,1.7,5.6,1.7c3.1,0,4.5-1.5,4.5-3.5c0-2-1.2-3.1-4.3-4.3c-4.2-1.5-6.1-3.8-6.1-6.6c0-3.7,3-6.8,8-6.8
		c2.4,0,4.4,0.7,5.7,1.4l-1.1,3.1c-0.9-0.6-2.6-1.3-4.7-1.3c-2.5,0-3.9,1.4-3.9,3.2c0,1.9,1.4,2.8,4.4,3.9c4,1.5,6.1,3.5,6.1,7
		c0,4.1-3.2,7-8.7,7c-2.5,0-4.9-0.6-6.5-1.6L1950,506z"/>
	<path d="M1974.6,480.4v6.7h6v3.2h-6v12.5c0,2.9,0.8,4.5,3.2,4.5c1.1,0,1.9-0.1,2.4-0.3l0.2,3.2c-0.8,0.3-2.1,0.6-3.7,0.6
		c-2,0-3.5-0.6-4.6-1.8c-1.2-1.3-1.6-3.3-1.6-6v-12.6h-3.6v-3.2h3.6v-5.6L1974.6,480.4z"/>
	<path d="M2004.8,503.9c0,2.4,0.1,4.5,0.2,6.3h-3.7l-0.2-3.8h-0.1c-1.1,1.9-3.5,4.3-7.7,4.3c-3.6,0-8-2-8-10.2v-13.5h4.2v12.8
		c0,4.4,1.3,7.4,5.2,7.4c2.8,0,4.8-2,5.6-3.8c0.2-0.6,0.4-1.4,0.4-2.2v-14.2h4.2L2004.8,503.9L2004.8,503.9z"/>
	<path d="M2031.8,476.3v28c0,2.1,0.1,4.4,0.2,6h-3.8l-0.2-4h-0.1c-1.3,2.6-4.1,4.5-7.9,4.5c-5.6,0-9.9-4.7-9.9-11.8
		c-0.1-7.7,4.7-12.5,10.4-12.5c3.5,0,5.9,1.7,7,3.5h0.1v-13.8L2031.8,476.3L2031.8,476.3z M2027.6,496.5c0-0.5-0.1-1.3-0.2-1.8
		c-0.6-2.7-2.9-4.9-6.1-4.9c-4.4,0-6.9,3.8-6.9,9c0,4.7,2.3,8.6,6.8,8.6c2.8,0,5.4-1.9,6.2-5c0.1-0.6,0.2-1.2,0.2-1.8L2027.6,496.5
		L2027.6,496.5z"/>
	<path d="M2043.5,480.6c0.1,1.4-1,2.6-2.7,2.6c-1.5,0-2.5-1.2-2.5-2.6c0-1.5,1.1-2.6,2.6-2.6
		C2042.5,477.9,2043.5,479.1,2043.5,480.6z M2038.8,510.3v-23.2h4.2v23.2H2038.8z"/>
	<path d="M2071,498.5c0,8.6-5.9,12.3-11.5,12.3c-6.3,0-11.1-4.6-11.1-11.9c0-7.8,5.1-12.3,11.5-12.3
		C2066.5,486.5,2071,491.4,2071,498.5z M2052.6,498.7c0,5.1,2.9,8.9,7,8.9c4,0,7-3.8,7-9c0-3.9-2-8.9-6.9-8.9
		S2052.6,494.3,2052.6,498.7z"/>
</g>
</svg>
