<?xml version="1.0" encoding="utf-8"?>
<!-- Generator: Adobe Illustrator 19.0.1, SVG Export Plug-In . SVG Version: 6.00 Build 0)  -->
<svg version="1.1" id="Слой_1" xmlns="http://www.w3.org/2000/svg" xmlns:xlink="http://www.w3.org/1999/xlink" x="0px" y="0px"
	 viewBox="0 0 307.4 303.4" style="enable-background:new 0 0 307.4 303.4;" xml:space="preserve">
<style type="text/css">
	.st0{fill:#FFFFFF;}
</style>
<path class="st0" d="M79.3,196.7c-3.8,5.7-8.7,10-14.8,12.9c-6.1,2.9-12.3,4.3-18.7,4.3c-6.9,0-13.2-1.2-18.8-3.6
	c-5.6-2.4-10.4-5.7-14.4-9.8c-4-4.2-7.1-9.1-9.3-14.8C1.1,180,0,173.9,0,167.3s1.1-12.7,3.3-18.4s5.3-10.6,9.3-14.8
	c4-4.2,8.8-7.4,14.4-9.8c5.6-2.4,11.9-3.6,18.8-3.6c6.4,0,12.7,1.5,18.7,4.4s11,7.3,14.8,13.2h0.4c0-21.1,0-42.3,0-63.4
	c4.3,0,8.6,0,12.9,0c0,44.2,0,88.4,0,132.6c-4.3,0-8.6,0-12.9,0c0-3.6,0-7.2,0-10.8L79.3,196.7L79.3,196.7z M13.6,167.3
	c0,4.9,0.8,9.6,2.3,13.9s3.7,8.1,6.5,11.4s6.3,5.7,10.5,7.6s8.9,2.8,14.2,2.8c4.9,0,9.5-0.9,13.6-2.8c4.2-1.8,7.8-4.3,10.8-7.5
	c3-3.2,5.4-6.9,7.1-11.3c1.7-4.3,2.6-9,2.6-14.1s-0.8-9.8-2.6-14.1c-1.7-4.3-4.1-8.1-7.1-11.4s-6.6-5.7-10.8-7.6
	c-4.2-1.8-8.7-2.7-13.6-2.7c-5.3,0-10,1-14.2,2.8c-4.2,1.9-7.7,4.5-10.5,7.7c-2.8,3.2-5,7-6.5,11.4
	C14.4,157.8,13.6,162.4,13.6,167.3z M92.5,207.5c0,3.5-2.9,6.4-6.4,6.4c-3.5,0-6.4-2.9-6.4-6.4c0-3.5,2.9-6.4,6.4-6.4
	C89.7,201.1,92.5,204,92.5,207.5z M92.5,75c0,3.5-2.9,6.4-6.4,6.4c-3.5,0-6.4-2.9-6.4-6.4s2.9-6.4,6.4-6.4S92.5,71.4,92.5,75z"/>
<path class="st0" d="M164.8,208.3c-5.6,0-11.3,0-16.9,0c-10.6-26.4-21.2-52.9-31.8-79.3c4-1.4,8-2.8,12-4.1
	c9.4,24.4,18.7,48.8,28.1,73.2h0.4c9.4-24.4,18.9-48.8,28.3-73.2c4,1.4,8,2.8,12,4.1C186.1,155.4,175.5,181.9,164.8,208.3z
	 M197.1,127.1c0,3.5-2.8,6.4-6.4,6.4s-6.4-2.8-6.4-6.4s2.8-6.4,6.4-6.4C194.3,120.7,197.1,123.6,197.1,127.1z M128.4,127.1
	c0,3.5-2.8,6.4-6.4,6.4s-6.4-2.8-6.4-6.4s2.8-6.4,6.4-6.4C125.6,120.7,128.4,123.6,128.4,127.1z"/>
<path class="st0" d="M165.5,204.8c0,4.9-4.1,9.1-9.2,9.1s-9.2-4.2-9.1-9.1c0-4.5,3.4-8.4,8-9.1c0.1,1.4,0.7,2.3,1.1,2.3
	s1-0.9,1.1-2.3C162,196.4,165.5,200.3,165.5,204.8z"/>
<path class="st0" d="M307.4,167.4c0,6.7-1.2,12.9-3.5,18.5c-2.3,5.7-5.6,10.6-9.8,14.8s-9.2,7.4-15,9.8c-5.8,2.3-12.2,3.5-19.1,3.5
	c-6.8,0-13.1-1.2-18.9-3.5c-5.8-2.3-10.8-5.6-15-9.8s-7.4-9.1-9.8-14.8c-2.3-5.7-3.5-11.9-3.5-18.5s1.2-12.9,3.5-18.5
	s5.6-10.6,9.8-14.8c4.2-4.2,9.2-7.4,15-9.8c5.8-2.3,12.1-3.5,18.9-3.5c6.9,0,13.3,1.2,19.1,3.5c5.8,2.3,10.8,5.6,15,9.8
	c4.2,4.2,7.4,9.1,9.8,14.8C306.2,154.5,307.4,160.7,307.4,167.4z M293.7,167.4c0-4.9-0.8-9.6-2.4-13.9s-3.8-8.1-6.7-11.4
	c-2.9-3.2-6.4-5.8-10.6-7.7c-4.2-1.9-8.8-2.8-14-2.8s-9.8,1-13.9,2.8s-7.6,4.5-10.5,7.7s-5.1,7-6.7,11.4c-1.6,4.3-2.4,9-2.4,13.9
	s0.8,9.6,2.4,13.9s3.8,8.1,6.7,11.4c2.9,3.2,6.4,5.7,10.5,7.6s8.7,2.8,13.9,2.8s9.8-0.9,14-2.8c4.2-1.8,7.7-4.3,10.6-7.6
	c2.9-3.2,5.1-7,6.7-11.4C292.9,176.9,293.7,172.3,293.7,167.4z"/>
</svg>
